<?xml version="1.0" encoding="UTF-8"?>
<svg xmlns="http://www.w3.org/2000/svg" xmlns:xlink="http://www.w3.org/1999/xlink" width="191pt" height="191pt" viewBox="0 0 191 191" version="1.1">
<g id="surface1">
<path style=" stroke:none;fill-rule:nonzero;fill:rgb(0%,0%,0%);fill-opacity:1;" d="M 96.800781 6.699219 C 95.054688 8.5 93.804688 10 94.050781 10 C 94.296875 10 98.101562 9.347656 102.5 8.550781 C 106.898438 7.753906 112.75 7.054688 115.5 7 C 119.800781 6.914062 120.15625 6.761719 118.050781 5.898438 C 116.699219 5.347656 112.101562 4.5625 107.800781 4.148438 L 100 3.398438 L 96.800781 6.699219 "/>
<path style=" stroke:none;fill-rule:nonzero;fill:rgb(0%,0%,0%);fill-opacity:1;" d="M 106.800781 13.5625 C 97.601562 15.222656 91.328125 17.515625 82.5 22.453125 C 75.898438 26.144531 75.828125 26.230469 77.648438 28.101562 C 79.464844 29.964844 79.601562 29.960938 85 27.898438 C 88 26.753906 90.914062 25.074219 91.40625 24.199219 C 95.097656 17.699219 101.421875 15.996094 103.28125 21 C 104.28125 23.683594 104.851562 24 108.648438 24 C 112.25 24 113.328125 23.480469 115.699219 20.601562 C 117.277344 18.683594 120.050781 16.28125 122.050781 15.101562 C 124.949219 13.382812 125.910156 13.226562 127.300781 14.234375 C 129.335938 15.714844 129.664062 17.898438 128.632812 23.101562 L 127.898438 26.800781 L 139.5 32.199219 L 143.5 30.023438 C 149 27.03125 153.398438 27.53125 153.804688 31.199219 C 153.964844 32.679688 153.378906 35.300781 152.5 37 C 150.941406 40.015625 150.988281 40.199219 154.148438 43.800781 C 155.90625 45.800781 157.652344 47.476562 157.949219 47.449219 C 158.25 47.421875 160.601562 47.039062 163.101562 46.613281 C 172.101562 45.070312 174.839844 50.101562 168.921875 57.300781 L 165.800781 61.101562 L 167.851562 65.800781 C 169.816406 70.308594 170.101562 70.523438 174.800781 71.125 C 180.898438 71.902344 184 73.511719 184 75.898438 C 184 78.511719 180.800781 82.246094 176.601562 84.535156 C 174.398438 85.734375 173.195312 87.023438 173.5 87.851562 C 173.773438 88.585938 174 91.550781 174 94.351562 L 174 99.5 L 179.25 102 C 183.449219 104 184.5625 105.039062 184.8125 107.199219 C 185.179688 110.402344 182.199219 112.792969 176.800781 113.628906 C 173.234375 114.179688 173.058594 114.398438 171.949219 119.699219 C 170.84375 125 170.894531 125.296875 173.398438 127.898438 C 174.84375 129.398438 176 131.355469 176 132.300781 C 176 134.265625 173 136 169.601562 136 C 167.570312 136 166.621094 136.949219 164.550781 141.050781 C 162.175781 145.75 162.109375 146.265625 163.566406 148.5 C 165.589844 151.601562 164.699219 153.019531 160.699219 153.066406 C 158.070312 153.09375 156.894531 153.898438 154.097656 157.601562 C 150.675781 162.121094 145 167.15625 139.5 170.550781 C 137.824219 171.582031 139.878906 169 144.148438 164.699219 C 148.324219 160.5 153.492188 154.453125 155.527344 151.398438 C 166.640625 134.707031 171.546875 114.199219 169.148438 94.5 C 167.5625 81.5 165.628906 74.714844 160.597656 64.5 C 149.738281 42.460938 130.199219 30 106.5 30 C 90.5 30 77.503906 35.472656 63.800781 47.976562 C 60.199219 51.261719 56.972656 54 56.699219 54 C 56.421875 54 56.445312 52.148438 56.75 49.851562 C 57.175781 46.648438 57.027344 45.871094 56.101562 46.453125 C 53.300781 48.214844 51.070312 55.5 51.035156 63 L 51 70.5 L 53.675781 67 C 58.867188 60.214844 65.5 54.859375 73.898438 50.679688 L 82.300781 46.5 L 94.898438 46.5 C 106.398438 46.5 108.074219 46.742188 114.101562 49.273438 C 127.566406 54.9375 138.605469 66.898438 143.191406 80.800781 C 145.277344 87.128906 145.390625 89 145.210938 114.398438 C 144.996094 144.800781 145.191406 143.953125 135.398438 156.398438 C 123.835938 171.089844 99.398438 182.761719 75.800781 184.859375 L 67.5 185.601562 L 75.5 187.546875 C 87.101562 190.371094 107.523438 190.226562 118.699219 187.242188 C 151.019531 178.617188 174.671875 155.898438 185.582031 123 C 188.21875 115.050781 188.402344 113.398438 188.449219 97.5 C 188.492188 82.699219 188.203125 79.476562 186.210938 72.601562 C 181.230469 55.398438 173.308594 42.066406 160.601562 29.484375 C 145.015625 14.054688 129.5 9.460938 106.800781 13.5625 Z M 121.683594 34.699219 C 122.332031 36.398438 116.5 42.808594 113.101562 44.132812 C 109.246094 45.632812 106.675781 42.601562 107.472656 37.5 C 107.816406 35.300781 108.773438 32.992188 109.601562 32.367188 C 111.554688 30.890625 120.925781 32.699219 121.683594 34.699219 Z M 101 33.699219 C 101 34.695312 99.601562 37.199219 97.875 39.300781 C 94.257812 43.699219 89.8125 44.464844 87.992188 41 C 86.011719 37.230469 87.199219 34.640625 91.5 33.351562 C 97.601562 31.519531 101 31.644531 101 33.699219 Z M 80 40.898438 C 80 41.972656 78.863281 44.199219 77.550781 45.699219 C 75.539062 48 74.777344 48.300781 73.300781 47.386719 C 70.382812 45.578125 70.699219 43.378906 74.199219 41.128906 C 78.300781 38.492188 80 38.425781 80 40.898438 Z M 139.75 43.199219 C 142.050781 44.769531 144 46.488281 144 46.949219 C 144 47.421875 141.898438 49.191406 139.300781 50.910156 C 131.5 56.078125 125.132812 53.9375 127.96875 47.101562 C 129.875 42.5 132.972656 38.835938 134.300781 39.605469 C 134.949219 39.980469 137.449219 41.628906 139.75 43.199219 Z M 151.75 55.25 C 152.871094 56.480469 154.75 59.398438 155.898438 61.699219 L 158 65.898438 L 155.101562 67.410156 C 147 71.636719 138.886719 69.59375 140.347656 63.699219 C 140.992188 61.101562 147.542969 53 149 53 C 149.371094 53 150.65625 54.050781 151.75 55.25 Z M 163.355469 80.800781 C 165.699219 89 165.699219 89 159.300781 89 C 149.699219 89 146.292969 84.910156 151.699219 79.878906 C 158.765625 73.300781 161.269531 73.5 163.355469 80.800781 Z M 166.5 106.5 L 166.5 113.5 L 162.398438 113.421875 C 156.601562 113.308594 150.550781 110.128906 150.191406 107 C 149.808594 103.636719 152.601562 101.195312 158.101562 100.089844 C 166.300781 98.441406 166.5 98.59375 166.5 106.5 Z M 164.441406 123.800781 C 164.746094 124.289062 164.414062 126.699219 163.714844 129.101562 C 162.136719 134.5 160.242188 135.03125 155 131.550781 C 151 128.894531 150.035156 126.363281 152.199219 124.199219 C 153.601562 122.800781 163.613281 122.472656 164.441406 123.800781 Z M 156.46875 145 C 157.390625 146.46875 156 150 154.5 150 C 152.601562 150 150.65625 147.246094 151.328125 145.5 C 151.980469 143.800781 155.503906 143.457031 156.46875 145 "/>
<path style=" stroke:none;fill-rule:nonzero;fill:rgb(0%,0%,0%);fill-opacity:1;" d="M 66.148438 36.351562 C 63.023438 39.550781 62.269531 40.84375 63.300781 41.246094 C 64.988281 41.902344 69.449219 37.5 70.441406 34.199219 C 70.800781 33 70.941406 32 70.75 32 C 70.558594 32 68.496094 33.949219 66.148438 36.351562 "/>
<path style=" stroke:none;fill-rule:nonzero;fill:rgb(0%,0%,0%);fill-opacity:1;" d="M 41.648438 60.851562 C 40.65625 61.949219 40.113281 63.410156 40.480469 64 C 42.191406 66.777344 37.800781 71 33.199219 71 C 32.207031 71 30.144531 72.300781 28.601562 73.898438 L 25.800781 76.800781 L 31.199219 78.371094 C 44.929688 82.363281 43.5 91.734375 29 92.769531 L 23 93.199219 L 22.851562 86.351562 L 22.699219 79.5 L 22.085938 86 C 20.171875 106.199219 27.945312 130.269531 40.683594 143.601562 C 52.394531 155.855469 64.800781 161.71875 81 162.664062 C 97.101562 163.605469 112.097656 158.144531 124.398438 146.867188 C 127.898438 143.65625 131.070312 141 131.398438 141 C 131.734375 141 132 142.5 132 144.398438 C 132 147.898438 130.097656 150.359375 127.800781 149.828125 C 125.566406 149.308594 120.160156 154.5 118.453125 158.800781 C 116.671875 163.300781 114.363281 164.761719 112.300781 162.699219 C 111.09375 161.492188 110.148438 161.601562 105.449219 163.5 C 102.449219 164.710938 99 167.003906 97.773438 168.601562 C 92.933594 174.898438 89.476562 175.726562 87.71875 171 C 86.714844 168.304688 86.148438 168 82.148438 168 C 78.164062 168 77.21875 168.5 73.09375 172.800781 C 67.8125 178.300781 64.757812 179.574219 62.398438 177.253906 C 60.796875 175.675781 60.789062 170.898438 62.386719 167 C 62.847656 165.871094 61.449219 164.816406 56.75 162.75 L 50.5 160 L 45.351562 162.601562 C 41.148438 164.71875 39.8125 164.992188 38.101562 164.074219 C 35.488281 162.675781 35.464844 160.5 38.011719 155.5 L 40 151.601562 L 36.351562 147.851562 C 33.234375 144.648438 32.347656 144.238281 30.300781 145.039062 C 26.898438 146.375 20.636719 146.238281 19.199219 144.800781 C 17.152344 142.75 17.832031 139.300781 20.996094 135.699219 C 24.539062 131.667969 24.558594 131.5 22.050781 125.601562 C 20.101562 121 20.101562 121 15.199219 121 C 4.699219 121 2.917969 114.464844 11.898438 108.882812 C 16.699219 105.898438 16.699219 105.898438 16.300781 101.199219 C 16.078125 98.601562 15.699219 95.515625 15.449219 94.300781 C 14.703125 90.65625 10.953125 91.5 6.132812 96.398438 L 1.898438 100.699219 L 2.980469 109.300781 C 5.769531 131.5 16.910156 152.027344 34.398438 167.183594 C 43.550781 175.109375 51.601562 178.664062 63.800781 180.164062 C 92.199219 183.652344 126.136719 166.769531 137.894531 143.300781 C 139.597656 139.90625 140 137.25 140 129.449219 L 140 119.800781 L 135.421875 125.898438 C 124.808594 140.03125 110.699219 146.636719 93.101562 145.710938 C 76.5 144.835938 63.605469 138.03125 54.421875 125.300781 C 46.023438 113.65625 44.804688 108.5 44.097656 81.601562 C 43.511719 59.300781 43.460938 58.84375 41.648438 60.851562 Z M 38.300781 103.929688 C 43.585938 105.945312 42.199219 110.824219 35 115.566406 C 32.800781 117.015625 30.414062 117.976562 29.699219 117.703125 C 28.101562 117.089844 24.539062 105.621094 25.472656 104.101562 C 26.308594 102.746094 34.898438 102.632812 38.300781 103.929688 Z M 47.5 122.972656 C 50.890625 124.273438 50.933594 128.398438 47.601562 132.898438 C 44.050781 137.699219 41.277344 139.4375 39.5 137.96875 C 37.800781 136.566406 33 128.539062 33 127.101562 C 33 125.820312 36.5 123.863281 40.5 122.90625 C 44.699219 121.898438 44.699219 121.898438 47.5 122.972656 Z M 62.828125 141.300781 C 63.132812 143.898438 58.753906 153 57.199219 153 C 55.800781 153 47 146.441406 47 145.398438 C 47 142.679688 55.300781 137.941406 59.5 138.269531 C 62 138.460938 62.554688 138.96875 62.828125 141.300781 Z M 118.796875 147.101562 C 119.113281 148.800781 112.320312 153.71875 111.199219 152.601562 C 110.863281 152.261719 111.34375 150.449219 112.300781 148.449219 C 113.59375 145.75 114.539062 144.972656 116.25 145.199219 C 117.449219 145.359375 118.640625 146.246094 118.796875 147.101562 Z M 82.324219 150.101562 C 83.050781 151.246094 83.089844 153.050781 82.449219 155.648438 L 81.5 159.5 L 75.699219 159.386719 C 68.300781 159.242188 67.019531 158.054688 70.121094 154.199219 C 74.863281 148.300781 80.078125 146.546875 82.324219 150.101562 Z M 100.800781 149.832031 C 101.476562 150.265625 102.261719 152 102.601562 153.800781 C 103.125 156.601562 102.851562 157.132812 100.398438 158.066406 C 96.601562 159.511719 89 160.46875 89 159.5 C 89 157.96875 93.199219 151.953125 95.300781 150.476562 C 97.699219 148.792969 98.941406 148.644531 100.800781 149.832031 "/>
<path style=" stroke:none;fill-rule:nonzero;fill:rgb(0%,0%,0%);fill-opacity:1;" d="M 52 95.449219 L 52 108 L 61.101562 108 L 60.5 83.5 L 52 82.898438 L 52 95.449219 "/>
<path style=" stroke:none;fill-rule:nonzero;fill:rgb(0%,0%,0%);fill-opacity:1;" d="M 81.648438 85.800781 C 79.785156 89.398438 73 106.1875 73 107.199219 C 73 107.640625 75.199219 108 77.898438 108 C 81.300781 108 82.96875 107.539062 83.351562 106.5 C 83.710938 105.511719 85.25 105 87.851562 105 C 90.449219 105 91.988281 105.511719 92.351562 106.5 C 92.742188 107.570312 94.351562 108 97.949219 108 C 100.75 108 103 107.800781 103 107.550781 C 103 107.304688 100.691406 101.648438 97.898438 95.050781 L 92.800781 83 L 87.949219 83 C 83.648438 83 82.933594 83.316406 81.648438 85.800781 Z M 89.386719 95.601562 C 90.261719 97.898438 90.203125 98 88 98 C 86.101562 98 85.324219 96.015625 86.699219 94.667969 C 87.8125 93.578125 88.742188 93.898438 89.386719 95.601562 "/>
<path style=" stroke:none;fill-rule:nonzero;fill:rgb(0%,0%,0%);fill-opacity:1;" d="M 118.300781 83.976562 C 117.011719 84.492188 115.5 86 114.859375 87.398438 C 112.53125 92.515625 116.601562 96.140625 127.300781 98.484375 C 129 98.859375 129.835938 99.53125 129.425781 100.199219 C 128.800781 101.21875 123.398438 100.839844 118.398438 99.421875 C 116.667969 98.933594 115.859375 99.449219 114.601562 101.851562 C 113.707031 103.550781 113 105.121094 113 105.398438 C 113 106.511719 120.898438 108 126.800781 108 C 134.101562 108 138.703125 106.023438 139.597656 102.5 C 141.007812 96.933594 138.300781 94.347656 129.101562 92.46875 C 120.863281 90.785156 121 88.589844 129.300781 89.269531 C 135.398438 89.765625 135.867188 89.648438 136.898438 87.351562 C 137.871094 85.183594 137.699219 84.785156 135.398438 83.910156 C 132.300781 82.730469 121.292969 82.773438 118.300781 83.976562 "/>
</g>
</svg>
